<svg xmlns="http://www.w3.org/2000/svg" viewBox="0 0 56 70" x="0px" y="0px"><title>chat</title><circle cx="34" cy="20" r="2"/><circle cx="26" cy="20" r="2"/><circle cx="42" cy="20" r="2"/><path d="M49,6H19a3,3,0,0,0-3,3V31a3,3,0,0,0,3,3H44.59l5.7,5.71A1,1,0,0,0,51,40a.84.84,0,0,0,.38-.08A1,1,0,0,0,52,39V9A3,3,0,0,0,49,6Zm1,30.59-4.29-4.3A1,1,0,0,0,45,32H19a1,1,0,0,1-1-1V9a1,1,0,0,1,1-1H49a1,1,0,0,1,1,1Z"/><path d="M33,36a1,1,0,0,0-1,1v4a1,1,0,0,1-1,1H9.91a1,1,0,0,0-.77.37L6,46.2V19a1,1,0,0,1,1-1h6a1,1,0,0,0,0-2H7a3,3,0,0,0-3,3V49a1,1,0,0,0,1,1,1,1,0,0,0,.77-.37L10.38,44H31a3,3,0,0,0,3-3V37A1,1,0,0,0,33,36Z"/><text x="0" y="71" fill="#000000" font-size="5px" font-weight="bold" font-family="'Helvetica Neue', Helvetica, Arial-Unicode, Arial, Sans-serif">Created by Momento Design</text><text x="0" y="76" fill="#000000" font-size="5px" font-weight="bold" font-family="'Helvetica Neue', Helvetica, Arial-Unicode, Arial, Sans-serif">from the Noun Project</text></svg>