<svg id="Capa_1" enable-background="new 0 0 511.996 511.996" height="512" viewBox="0 0 511.996 511.996" width="512" xmlns="http://www.w3.org/2000/svg"><g><path d="m250.909 42.277c-1.637 5.037-.297 10.462 3.495 14.159l11.715 11.419-2.765 16.124c-.896 5.22 1.21 10.397 5.495 13.51 2.421 1.759 5.253 2.653 8.105 2.653 2.194 0 4.401-.53 6.44-1.602l14.48-7.613 14.48 7.612c4.687 2.464 10.261 2.063 14.546-1.051 4.285-3.113 6.392-8.29 5.495-13.51l-2.765-16.124 11.715-11.419c3.792-3.697 5.132-9.123 3.495-14.159-1.637-5.037-5.909-8.64-11.151-9.401l-16.188-2.353-7.24-14.669c-2.344-4.75-7.09-7.7-12.387-7.7s-10.043 2.951-12.387 7.7l-7.24 14.67-16.188 2.353c-5.241.762-9.513 4.364-11.15 9.401zm30.114 3.001c4.501-.654 8.389-3.479 10.4-7.556l6.452-13.073 6.451 13.072c2.013 4.078 5.9 6.903 10.401 7.557l14.426 2.097-10.44 10.177c-3.254 3.173-4.738 7.742-3.971 12.225l2.464 14.368-12.902-6.783c-4.024-2.117-8.832-2.118-12.856-.001l-12.903 6.784 2.464-14.367c.77-4.481-.715-9.052-3.972-12.227l-10.439-10.176z"/><path d="m362.933 258.768c-41.037-21.599-76.726-40.409-80.134-73.623 17.328-3.843 33.286-12.514 46.246-25.349 11.789-11.674 20.349-26.256 24.753-42.174 1.749-6.336-.901-12.808-6.596-16.104-5.655-3.274-12.541-2.356-17.102 2.25l-.195.192c-.183.18-.363.359-.54.542-10.609 10.36-24.544 16.054-39.281 16.054-.098 0-.197 0-.296 0-14.879-.077-28.902-5.948-39.485-16.531-21.927-21.935-21.927-57.619-.001-79.544.002-.002.072-.073.075-.075l.103-.104c4.663-4.625 5.588-11.539 2.302-17.206-3.293-5.678-9.773-8.313-16.112-6.558-15.734 4.352-30.19 12.791-41.805 24.405-1.763 1.763-3.503 3.649-5.172 5.606-2.688 3.151-2.313 7.885.839 10.573 3.151 2.69 7.887 2.311 10.573-.839 1.413-1.657 2.883-3.25 4.367-4.734 9.069-9.07 20.188-15.839 32.319-19.699-25.855 27.901-25.221 71.644 1.903 98.779 13.396 13.396 31.159 20.828 50.017 20.925 18.177.143 35.422-6.645 48.762-19.015-3.906 12.261-10.773 23.479-19.982 32.598-15.154 15.008-35.158 23.263-56.358 23.263-.099 0-.198 0-.297 0-21.308-.078-41.371-8.482-56.492-23.666-22.15-22.248-29.271-55.601-18.141-84.971 1.468-3.873-.482-8.203-4.355-9.671-3.875-1.467-8.203.482-9.672 4.355-13.212 34.864-4.758 74.458 21.539 100.87 10.001 10.042 21.828 17.581 34.719 22.307-1.166 35.428-37.905 54.792-80.369 77.143-53.022 27.908-113.117 59.538-113.117 132.629 0 78.673 50.73 117.494 52.89 119.107 1.297.969 2.872 1.493 4.49 1.493h325.34c1.618 0 3.193-.523 4.489-1.492.331-.247 8.204-6.182 17.744-17.837 2.624-3.205 2.152-7.931-1.054-10.554-3.204-2.624-7.931-2.152-10.554 1.053-5.73 7.001-10.741 11.629-13.303 13.831h-319.988c-8.635-7.422-45.054-42.488-45.054-105.6 0-64.036 53.431-92.158 105.102-119.354 42.915-22.588 83.585-43.994 88.036-84.646h17.448c.082 0 .164.004.246.004h.354c.12 0 .24-.004.36-.004h5.416c4.451 40.652 45.121 62.058 88.036 84.646 51.671 27.196 105.102 55.318 105.102 119.354 0 24.59-5.467 47.544-16.25 68.222-1.915 3.673-.49 8.203 3.183 10.118 3.67 1.912 8.202.49 10.118-3.183 11.91-22.841 17.949-48.128 17.949-75.158 0-73.091-60.095-104.721-113.115-132.628z"/></g></svg>