<svg xmlns="http://www.w3.org/2000/svg" xmlns:xlink="http://www.w3.org/1999/xlink" version="1.1" x="0px" y="0px" viewBox="0 0 100 125" style="enable-background:new 0 0 100 100;" xml:space="preserve"><style type="text/css">
	.st0{fill-rule:evenodd;clip-rule:evenodd;}
</style><path class="st0" d="M50.5,94.6c-24.9,0-45.1-20.2-45.1-45.1S25.6,4.4,50.5,4.4s45.1,20.2,45.1,45.1S75.4,94.6,50.5,94.6z M10,49.5  C10,71.9,28.1,90,50.5,90c10.4,0,19.9-3.9,27-10.3C65.1,67.3,32.7,34.9,20.3,22.5C13.9,29.6,10,39.1,10,49.5z M50.5,9  c-10.4,0-19.9,3.9-27,10.3c12.4,12.4,44.8,44.8,57.2,57.2c6.4-7.2,10.3-16.6,10.3-27C91,27.1,72.9,9,50.5,9z M33.4,25.6h23.9v9.5  c0,3.2,3.2,3.2,3.2,3.2h9.5v24.9C57.7,51,44.4,37.7,32.5,25.8C32.8,25.7,33.1,25.6,33.4,25.6z M59.1,34.2c0-3.2,0-8.5,0-8.5  l10.8,10.8h-8.6C61.3,36.4,59.1,36.4,59.1,34.2z M67.6,73.4H33.4c-1.2,0-2.3-1-2.3-2.3V35.6c12.3,12.3,25.6,25.6,37.5,37.6  C68.3,73.3,68,73.4,67.6,73.4z"/><text x="0" y="115" fill="#000000" font-size="5px" font-weight="bold" font-family="'Helvetica Neue', Helvetica, Arial-Unicode, Arial, Sans-serif">Created by Rohith M S</text><text x="0" y="120" fill="#000000" font-size="5px" font-weight="bold" font-family="'Helvetica Neue', Helvetica, Arial-Unicode, Arial, Sans-serif">from the Noun Project</text></svg>