<svg xmlns="http://www.w3.org/2000/svg" xmlns:xlink="http://www.w3.org/1999/xlink" version="1.1" x="0px" y="0px" viewBox="0 0 32 40" enable-background="new 0 0 32 32" xml:space="preserve"><g><rect fill="none" width="32" height="32"/></g><g><g><path d="M13,17c-4.411,0-8-3.589-8-8s3.589-8,8-8s8,3.589,8,8S17.411,17,13,17z M13,3C9.691,3,7,5.691,7,9s2.691,6,6,6    s6-2.691,6-6S16.309,3,13,3z"/></g><g><path d="M23.5,31H1v-4c0-6.617,5.383-12,12-12c2.666,0,5.187,0.853,7.289,2.466l1.064,0.818l-1.088,0.786    C18.847,20.095,18,21.751,18,23.5c0,3.033,2.468,5.5,5.5,5.5V31z M3,29h15.406C16.927,27.629,16,25.671,16,23.5    c0-1.922,0.748-3.762,2.05-5.136C16.528,17.468,14.805,17,13,17C7.486,17,3,21.486,3,27V29z"/></g><g><path d="M24,31h-0.5v-2h0.088c0.021,0,0.042-0.001,0.063-0.004l0.115-0.013l0.114,0.014C23.891,28.999,23.9,29,23.91,29H24V31z"/></g><g><path d="M23.5,31c-4.136,0-7.5-3.364-7.5-7.5c0-2.389,1.156-4.651,3.094-6.051l0.087-0.063C20.496,16.46,21.964,16,23.5,16    c4.136,0,7.5,3.364,7.5,7.5c0,4.048-3.164,7.338-7.203,7.49C23.74,30.998,23.627,31,23.5,31z M19.694,18.248l0.604,0.798    C18.847,20.095,18,21.751,18,23.5c0,3.033,2.468,5.5,5.5,5.5c0.054,0,0.1,0,0.151-0.004C26.682,28.88,29,26.468,29,23.5    c0-3.033-2.468-5.5-5.5-5.5c-1.122,0-2.192,0.335-3.096,0.968L19.694,18.248z"/></g><g><polygon points="22.828,23.828 21.414,22.414 20,23.828 21.414,25.243 22.121,25.95 22.828,26.657 27.071,22.414 25.657,21   "/></g></g><text x="0" y="47" fill="#000000" font-size="5px" font-weight="bold" font-family="'Helvetica Neue', Helvetica, Arial-Unicode, Arial, Sans-serif">Created by AmruID</text><text x="0" y="52" fill="#000000" font-size="5px" font-weight="bold" font-family="'Helvetica Neue', Helvetica, Arial-Unicode, Arial, Sans-serif">from the Noun Project</text></svg>