<svg xmlns:dc="http://purl.org/dc/elements/1.1/" xmlns:cc="http://creativecommons.org/ns#" xmlns:rdf="http://www.w3.org/1999/02/22-rdf-syntax-ns#" xmlns:svg="http://www.w3.org/2000/svg" xmlns="http://www.w3.org/2000/svg" xmlns:sodipodi="http://sodipodi.sourceforge.net/DTD/sodipodi-0.dtd" xmlns:inkscape="http://www.inkscape.org/namespaces/inkscape" version="1.1" x="0px" y="0px" viewBox="0 0 100 125"><g transform="translate(0,-952.36218)"><path style="font-size:medium;font-style:normal;font-variant:normal;font-weight:normal;font-stretch:normal;text-indent:0;text-align:start;text-decoration:none;line-height:normal;letter-spacing:normal;word-spacing:normal;text-transform:none;direction:ltr;block-progression:tb;writing-mode:lr-tb;text-anchor:start;baseline-shift:baseline;opacity:1;color:#000000;fill:#000000;fill-opacity:1;stroke:none;stroke-width:4;marker:none;visibility:visible;display:inline;overflow:visible;enable-background:accumulate;font-family:Sans;-inkscape-font-specification:Sans" d="M 50 6 C 25.723161 6 6 25.72314 6 50 C 6 74.2768 25.723161 94 50 94 C 74.276839 94 94 74.2768 94 50 C 94 25.72314 74.276839 6 50 6 z M 50 10 C 72.11508 10 90 27.8849 90 50 C 90 62.304935 84.440053 73.29181 75.71875 80.625 L 69 71.75 L 69 28 A 2.0002 2.0002 0 0 0 67 26 L 34.34375 26 L 27.46875 16.9375 C 33.884034 12.559173 41.635114 10 50 10 z M 24.28125 19.34375 L 31 28.21875 L 31 62 A 2.0002 2.0002 0 0 0 31.65625 63.46875 L 42.65625 73.46875 A 2.0002 2.0002 0 0 0 44 74 L 65.6875 74 L 72.5625 83.0625 C 66.143165 87.449545 58.373989 90 50 90 C 27.88492 90 10 72.1151 10 50 C 10 37.687807 15.551045 26.676959 24.28125 19.34375 z M 37.375 30 L 65 30 L 65 66.46875 L 37.375 30 z M 35 33.5 L 62.65625 70 L 48 70 L 48 59 A 2.0001999 2.0001999 0 0 0 46 57 L 35 57 L 35 33.5 z M 35 61 L 44 61 L 44 69.28125 L 35 61.09375 L 35 61 z " transform="translate(0,952.36218)"/></g><text x="0" y="115" fill="#000000" font-size="5px" font-weight="bold" font-family="'Helvetica Neue', Helvetica, Arial-Unicode, Arial, Sans-serif">Created by Youmena</text><text x="0" y="120" fill="#000000" font-size="5px" font-weight="bold" font-family="'Helvetica Neue', Helvetica, Arial-Unicode, Arial, Sans-serif">from the Noun Project</text></svg>