<svg xmlns="http://www.w3.org/2000/svg" xmlns:xlink="http://www.w3.org/1999/xlink" version="1.1" x="0px" y="0px" viewBox="0 0 100 125" enable-background="new 0 0 100 100" xml:space="preserve"><path d="M59.129,35.648c0.845,0,1.533-0.688,1.533-1.533c0-0.846-0.688-1.533-1.533-1.533c-0.846,0-1.533,0.688-1.533,1.533  C57.596,34.96,58.283,35.648,59.129,35.648z M59.129,33.664c0.248,0,0.451,0.203,0.451,0.451s-0.203,0.451-0.451,0.451  c-0.249,0-0.451-0.203-0.451-0.451S58.88,33.664,59.129,33.664z"/><path d="M64.435,35.648c0.846,0,1.534-0.688,1.534-1.533c0-0.846-0.688-1.533-1.534-1.533c-0.845,0-1.533,0.688-1.533,1.533  C62.901,34.96,63.59,35.648,64.435,35.648z M64.435,33.664c0.249,0,0.451,0.203,0.451,0.451s-0.202,0.451-0.451,0.451  s-0.45-0.203-0.45-0.451S64.186,33.664,64.435,33.664z"/><path d="M27.548,74.702c0.898,0,1.686-0.354,2.215-0.994c0.541-0.654,0.743-1.52,0.567-2.434c-0.229-1.197-1.09-2.287-2.246-2.846  c-0.27-0.129-0.593-0.018-0.723,0.252s-0.017,0.594,0.253,0.723c0.854,0.412,1.487,1.207,1.653,2.074  c0.113,0.592-0.007,1.139-0.339,1.541c-0.32,0.387-0.811,0.602-1.381,0.602c-1.289,0-2.538-1.053-2.786-2.346  c-0.153-0.803,0.135-1.527,0.752-1.893c0.257-0.152,0.342-0.484,0.189-0.742c-0.152-0.256-0.483-0.342-0.741-0.189  c-1.021,0.605-1.505,1.766-1.264,3.027C24.045,73.286,25.735,74.702,27.548,74.702z"/><path d="M10.935,60.329c-0.896,0-1.623,0.729-1.623,1.623v0.053l3.608,18.586c0.006,0.168,0.038,0.33,0.093,0.482H8.041  c-0.299,0-0.541,0.242-0.541,0.541v3.668c0,0.299,0.242,0.543,0.541,0.543h83.918c0.299,0,0.541-0.244,0.541-0.543v-3.668  c0-0.299-0.242-0.541-0.541-0.541h-5.785c0.033-0.084,0.061-0.164,0.082-0.227c0.002-0.01,0.004-0.02,0.008-0.027l3.336-12.07  l0.18,0.033c0.076,0.014,0.152,0.021,0.229,0.021c0.254,0,0.502-0.078,0.715-0.225c0.277-0.193,0.463-0.48,0.523-0.813  c0.008-0.045,0.012-0.09,0.008-0.135l-0.865-12.732c-0.123-2.744-1.973-4.312-3.844-4.943c2.014-1.084,3.422-4.005,3.422-7.529  c0-4.476-2.271-7.982-5.17-7.982h-9.133v-5.19c0.576-0.586,0.932-1.388,0.932-2.272V26.92l-1.816-7.812  c-0.441-1.989-1.687-3.129-3.414-3.129h-3.787c-0.244-1.033-1.172-1.804-2.279-1.804c-1.106,0-2.034,0.771-2.279,1.804h-3.799  c-1.131,0-2.609,0.542-3.232,3.125l-1.455,6.255H52.23c-1.343,0-2.435,1.093-2.435,2.436s1.092,2.436,2.435,2.436h2.871v4.216  h-2.809c-2.898,0-5.17,3.506-5.17,7.982c0,3.125,1.107,5.774,2.763,7.091c-1.337,0.238-2.666,0.765-3.779,1.934  c-0.008,0.008-0.017,0.018-0.023,0.025l-7.38,8.852H10.935z M85.225,80.517c-0.105,0.309-0.189,0.447-0.268,0.508l0.129,0.049  H60.445c0.056-0.15,0.096-0.316,0.116-0.494l0.063-0.594c0.051-0.506-0.059-0.912-0.326-1.207c-0.283-0.313-0.719-0.471-1.295-0.471  h-11.98l5.021-0.852l26.506-2.943c0.25-0.027,0.449-0.225,0.479-0.475l0.271-2.309l0.24-2.037l0,0l0.33-2.799l8.662,1.652  L85.225,80.517z M46.327,69.214c0.012,0.008,0.022,0.016,0.034,0.023c0.228,0.141,0.468,0.213,0.708,0.213  c0.096,0,0.192-0.012,0.288-0.035c0.544-0.133,0.871-0.6,0.99-0.799l2.108-3.627l1.215,11.432l-6.146,1.043l-1.145-5.896  L46.327,69.214z M44.112,70.192l-0.589-3.035l1.93,1.416L44.112,70.192z M59.549,79.874l-0.063,0.586  c-0.05,0.424-0.254,0.613-0.662,0.613h-1.711H46.617c-0.112,0-0.346,0-0.521-0.664l-0.198-1.02h13.105  c0.361,0,0.468,0.088,0.492,0.115C59.547,79.562,59.566,79.696,59.549,79.874z M59.219,70.526c0.104-0.643,0.163-1.32,0.18-2.021  c0.431-0.201,0.73-0.639,0.73-1.145V50.405h1.248c0.273,2.815,2.654,5.024,5.539,5.024c2.887,0,5.267-2.209,5.539-5.024h1.346V67.36  c0,0.572,0.379,1.055,0.9,1.211c0.109,0.861,0.281,1.684,0.516,2.455c-0.215,0.352-0.254,0.799-0.066,1.197l0.709,1.5l-19.045,2.113  c0.428-0.479,0.838-1.039,1.202-1.699c0.433-0.119,0.78-0.455,0.894-0.906l0.444-1.758C59.439,71.14,59.381,70.802,59.219,70.526z   M69.455,35.505h1.984c0.299,0,0.541-0.242,0.541-0.541c0-0.717,0.584-1.301,1.301-1.301s1.301,0.583,1.301,1.301V41.4  c0,1.194-0.971,2.165-2.164,2.165H58.35c-1.194,0-2.165-0.971-2.165-2.165V30.229h1.232h11.497v4.735  C68.914,35.263,69.156,35.505,69.455,35.505z M69.997,34.423v-4.193h1.938h1.414c0.436,0,0.852-0.088,1.232-0.245v2.986  c-0.375-0.245-0.82-0.389-1.301-0.389c-1.127,0-2.072,0.788-2.318,1.841H69.997z M71.398,49.899  c-0.02,2.456-2.021,4.448-4.482,4.448c-2.471,0-4.482-2.012-4.482-4.483v-5.217h8.961v5.217  C71.395,49.875,71.397,49.887,71.398,49.899z M74.883,49.863v-0.3c0-0.1,0.08-0.181,0.18-0.181h3.607c0.1,0,0.182,0.081,0.182,0.181  v12.26l-1.098,3.316c-0.008,0.023-0.016,0.047-0.02,0.072c-0.061,0.332,0.012,0.668,0.205,0.945c0.191,0.277,0.48,0.463,0.807,0.521  l0.061,0.012l-0.1,0.844c-0.014,0.002-0.023,0.008-0.037,0.008h-0.012h-3.473h-0.123c-0.1,0-0.18-0.082-0.18-0.182V49.865  C74.883,49.864,74.883,49.864,74.883,49.863C74.883,49.863,74.883,49.863,74.883,49.863z M76.158,71.563  c0.006-0.004,0.012-0.008,0.018-0.012c0.002-0.002,0.004-0.004,0.006-0.006c0.012-0.008,0.021-0.018,0.033-0.025l2.141-1.01  l-0.205,1.738l-0.096,0.807l-0.91,0.43c-0.025,0.012-0.051,0.018-0.076,0.018c-0.053,0-0.129-0.027-0.164-0.104l-0.775-1.639  C76.098,71.694,76.111,71.616,76.158,71.563z M75.795,68.624h2.367c0.025,0.197,0.066,0.439,0.129,0.719l-2.146,1.014  C75.996,69.806,75.879,69.226,75.795,68.624z M59.047,67.36c0,0.1-0.082,0.182-0.181,0.182h-3.473h-0.136  c-0.1,0-0.18-0.082-0.18-0.182V49.563c0-0.1,0.08-0.181,0.18-0.181h3.608c0.099,0,0.181,0.081,0.181,0.181V67.36z M58.316,68.624  c-0.016,0.432-0.049,0.854-0.1,1.26l-2.389-0.604c0.038-0.25,0.064-0.475,0.08-0.656H58.316z M55.113,70.216l3.061,0.773  c0.098,0.025,0.156,0.123,0.131,0.219l-0.443,1.758c-0.029,0.115-0.137,0.15-0.219,0.131l-3.063-0.773  c-0.063-0.016-0.096-0.059-0.109-0.082c-0.016-0.023-0.037-0.074-0.021-0.137l0.444-1.758c0.023-0.094,0.105-0.137,0.174-0.137  C55.082,70.21,55.098,70.212,55.113,70.216z M56.836,74.009c-0.549,0.877-1.193,1.535-1.822,2.029l-2.267,0.25l-0.15-1.48  c0.597-0.402,1.124-0.9,1.574-1.482c0.047,0.02,0.095,0.035,0.146,0.047L56.836,74.009z M89.309,54.96l0.859,12.656  c-0.018,0.037-0.043,0.061-0.061,0.072c-0.023,0.016-0.07,0.041-0.131,0.029l-11.031-2.102c-0.064-0.012-0.102-0.053-0.117-0.076  c-0.014-0.02-0.033-0.057-0.031-0.109l2.051-6.191c0.094-0.283-0.061-0.59-0.344-0.684c-0.211-0.07-0.432-0.004-0.57,0.15v-8.301  h0.818c0.012,0,0.021-0.003,0.031-0.003c0.018,0.001,0.035,0.004,0.053,0.003c0.027-0.001,2.709-0.071,4.871,0.437  C86.518,51.032,89.17,51.89,89.309,54.96z M84.797,35.527c2.215,0,4.088,3.16,4.088,6.9c0,3.739-1.873,6.899-4.088,6.899  c-2.213,0-4.082-3.151-4.086-6.884c0.123-2.375,1.453-3.983,2.719-4.524c0.465-0.199,1.359-0.433,2.137,0.231  c1.064,0.999,1.846,3.548,1.256,5.925c-0.422,1.547-1.215,2.276-1.814,2.313c-0.559,0.033-1.111-0.514-1.514-1.501  c-0.25-0.617-0.342-1.326-0.314-1.997h0.602c-0.053,0.445,0.016,0.914,0.182,1.221c0.211,0.456,0.594,0.736,1.029,0.752  c0.482,0.016,0.928-0.293,1.225-0.852c0.311-0.587,0.508-1.663,0.127-2.924c-0.273-0.912-0.777-1.531-1.416-1.744  c-0.486-0.161-0.998-0.072-1.443,0.25c-1.453,0.935-1.734,3.875-0.994,5.701c0.76,1.859,1.828,2.177,2.467,2.177  c0.041,0,0.08-0.002,0.117-0.004c1.221-0.074,2.291-1.266,2.795-3.122c0.637-2.563-0.039-5.57-1.572-6.997l-0.016-0.013  c-0.895-0.772-2.088-0.923-3.277-0.414c-0.369,0.157-0.74,0.387-1.098,0.68C82.652,36.33,83.682,35.527,84.797,35.527z   M84.902,41.929c-0.131-0.114-0.301-0.151-0.461-0.12h-1.109c0.156-0.617,0.422-1.105,0.744-1.309l0.035-0.023  c0.162-0.121,0.322-0.156,0.477-0.105c0.285,0.095,0.555,0.479,0.721,1.028c0.285,0.947,0.152,1.726-0.049,2.104  c-0.111,0.21-0.209,0.272-0.219,0.28c-0.012-0.006-0.057-0.042-0.1-0.136l-0.025-0.053c-0.1-0.172-0.092-0.751,0.041-0.904  C85.152,42.466,85.129,42.125,84.902,41.929z M75.664,35.527h6.498c-1.527,1.372-2.535,3.92-2.535,6.9  c0,2.979,1.008,5.527,2.535,6.899h-0.268c-0.627-0.016-1.047-0.005-1.09-0.004c-0.008,0-0.014,0.002-0.021,0.003  c-0.01-0.001-0.02-0.003-0.031-0.003H79.91c-0.113-0.582-0.625-1.022-1.24-1.022h-3.607c-0.613,0-1.127,0.44-1.238,1.022h-1.348  v-4.678c1.764-0.033,3.188-1.475,3.188-3.245V35.527z M71.365,17.061c1.609,0,2.168,1.43,2.359,2.287l1.789,7.693  c-0.031,1.167-0.99,2.106-2.164,2.106h-0.984l-2.379-10.208c-0.087-0.521-0.35-1.266-0.854-1.878H71.365z M65.299,15.257  c0.503,0,0.938,0.295,1.141,0.722h-2.281C64.361,15.552,64.797,15.257,65.299,15.257z M57.041,19.353  c0.496-2.054,1.482-2.292,2.18-2.292h3.733h3.909c1.691,0,2.044,1.987,2.059,2.07l2.035,8.739c-1.264-1.139-3.279-2.511-5.65-2.511  h-9.662L57.041,19.353z M52.23,29.147c-0.746,0-1.353-0.607-1.353-1.353s0.606-1.353,1.353-1.353h13.076  c2.336,0,4.357,1.647,5.414,2.706H52.23z M48.206,42.427c0-3.74,1.871-6.9,4.087-6.9h2.809V41.4c0,1.791,1.457,3.247,3.248,3.247  h3.002v4.676h-1.246c-0.113-0.582-0.625-1.022-1.239-1.022h-3.608c-0.613,0-1.126,0.44-1.238,1.022H53.08  c-0.26,0-0.527,0-0.801,0.004C50.069,49.313,48.206,46.16,48.206,42.427z M46.902,52.185c1.707-1.78,4.082-1.78,6.178-1.78h0.916  V67.36c0,0.547,0.348,1.01,0.832,1.186c-0.016,0.172-0.039,0.385-0.078,0.627c-0.438,0.115-0.791,0.455-0.906,0.91L53.4,71.839  c-0.058,0.23-0.049,0.465,0.02,0.684c-0.313,0.43-0.592,0.807-0.941,1.127l-1.457-14.354c-0.028-0.299-0.292-0.52-0.589-0.49  c-0.298,0.027-0.517,0.291-0.489,0.588l0.342,3.736l-2.871,4.938c-0.09,0.152-0.219,0.273-0.313,0.297  c-0.018,0.004-0.063,0.016-0.153-0.037l-3.729-2.736l-0.717-3.695c-0.03-0.869-0.747-1.566-1.623-1.566h-0.767L46.902,52.185z   M10.396,61.909c0.021-0.277,0.255-0.498,0.539-0.498h29.944c0.299,0,0.541,0.244,0.541,0.541v0.053l3.606,18.57  c-0.022,0.279-0.256,0.498-0.539,0.498H15.331h-0.789c-0.298,0-0.541-0.242-0.541-0.541v-0.051L10.396,61.909z M91.418,84.741H8.582  v-2.584h35.905c0.423,0,0.808-0.166,1.098-0.432c0.325,0.336,0.709,0.432,1.032,0.432h44.801V84.741z"/><path d="M57.789,41.308c-0.066,0-0.135-0.013-0.201-0.04c-0.277-0.112-0.412-0.427-0.301-0.704c0.601-1.492,2.498-2.456,4.836-2.456  c2.209,0,4.146,0.977,4.82,2.43c0.125,0.271,0.008,0.593-0.264,0.719c-0.271,0.126-0.593,0.008-0.719-0.263  c-0.492-1.062-2.07-1.804-3.838-1.804c-1.835,0-3.41,0.731-3.832,1.778C58.207,41.18,58.004,41.308,57.789,41.308z"/><text x="0" y="115" fill="#000000" font-size="5px" font-weight="bold" font-family="'Helvetica Neue', Helvetica, Arial-Unicode, Arial, Sans-serif">Created by Fernando Affonso</text><text x="0" y="120" fill="#000000" font-size="5px" font-weight="bold" font-family="'Helvetica Neue', Helvetica, Arial-Unicode, Arial, Sans-serif">from the Noun Project</text></svg>