<svg xmlns="http://www.w3.org/2000/svg" xmlns:xlink="http://www.w3.org/1999/xlink" version="1.1" x="0px" y="0px" viewBox="0 0 64 80" style="enable-background:new 0 0 64 64;" xml:space="preserve"><path d="M63.07,13v-2h-5c-0.553,0-1,0.447-1,1h-3.586L50.07,8.586V2c0-0.553-0.447-1-1-1c-3.309,0-6,2.691-6,6v5h-7.5  c-1.93,0-3.5,1.57-3.5,3.5c0,0.98,0.407,1.864,1.058,2.5c-0.651,0.636-1.058,1.52-1.058,2.5c0,1.254,0.669,2.348,1.663,2.966  C33.32,24.041,33.07,24.74,33.07,25.5c0,1.254,0.669,2.348,1.663,2.966C34.32,29.041,34.07,29.74,34.07,30.5  c0,1.93,1.57,3.5,3.5,3.5h19.5c0,0.553,0.447,1,1,1h5v-2h-4V13H63.07z M37.57,32c-0.827,0-1.5-0.673-1.5-1.5s0.673-1.5,1.5-1.5h0.5  h1v-2h-1h-0.5h-1c-0.827,0-1.5-0.673-1.5-1.5s0.673-1.5,1.5-1.5h0.5h1v-2h-1h-0.5h-1c-0.827,0-1.5-0.673-1.5-1.5s0.673-1.5,1.5-1.5  h1.5v-2h-1.5c-0.827,0-1.5-0.673-1.5-1.5c0-0.827,0.673-1.5,1.5-1.5h8.5c0.553,0,1-0.447,1-1V7c0-1.86,1.276-3.429,3-3.873V9  c0,0.266,0.105,0.519,0.293,0.707l4,4C52.55,13.894,52.804,14,53.07,14h4v18H37.57z"/><path d="M32.07,48.5c0-0.98-0.407-1.864-1.058-2.5c0.651-0.636,1.058-1.52,1.058-2.5c0-1.254-0.669-2.348-1.664-2.966  c0.413-0.575,0.664-1.274,0.664-2.034c0-1.254-0.669-2.348-1.664-2.966c0.413-0.575,0.664-1.274,0.664-2.034  c0-1.93-1.57-3.5-3.5-3.5H7.07c0-0.553-0.447-1-1-1h-5v2h4v20h-4v2h5c0.553,0,1-0.447,1-1h3.586l3.414,3.414V62c0,0.553,0.447,1,1,1  c3.309,0,6-2.691,6-6v-5h7.5C30.5,52,32.07,50.43,32.07,48.5z M28.57,50h-8.5c-0.553,0-1,0.447-1,1v6c0,1.86-1.276,3.429-3,3.873V55  c0-0.266-0.106-0.52-0.293-0.707l-4-4C11.589,50.105,11.336,50,11.07,50h-4V32h19.5c0.827,0,1.5,0.673,1.5,1.5s-0.673,1.5-1.5,1.5  h-0.5h-1v2h1h0.5h1c0.827,0,1.5,0.673,1.5,1.5s-0.673,1.5-1.5,1.5h-0.5h-1v2h1h0.5h1c0.827,0,1.5,0.673,1.5,1.5s-0.673,1.5-1.5,1.5  h-1.5v2h1.5c0.827,0,1.5,0.673,1.5,1.5S29.397,50,28.57,50z"/><path d="M32.07,11c0.32,0,0.64,0.008,0.956,0.021l0.088-1.998C32.768,9.008,32.42,9,32.07,9C20.966,9,11.453,16.915,9.449,27.819  l1.967,0.361C13.245,18.226,21.931,11,32.07,11z"/><path d="M32.07,53c-0.32,0-0.64-0.008-0.956-0.021l-0.088,1.998C31.372,54.992,31.72,55,32.07,55  c11.103,0,20.617-7.915,22.621-18.819l-1.967-0.361C50.895,45.774,42.209,53,32.07,53z"/><text x="0" y="79" fill="#000000" font-size="5px" font-weight="bold" font-family="'Helvetica Neue', Helvetica, Arial-Unicode, Arial, Sans-serif">Created by Becris</text><text x="0" y="84" fill="#000000" font-size="5px" font-weight="bold" font-family="'Helvetica Neue', Helvetica, Arial-Unicode, Arial, Sans-serif">from the Noun Project</text></svg>