<svg xmlns="http://www.w3.org/2000/svg" viewBox="0 0 64 80" x="0px" y="0px"><g><path d="M50,22H41v2H51a1,1,0,0,0,1-1V8a1,1,0,0,0-1-1H40V9H50Z"/><rect x="41" y="26" width="11" height="2"/><rect x="41" y="30" width="11" height="2"/><path d="M51,34H41v2h9v2H41v2H51a1,1,0,0,0,1-1V35A1,1,0,0,0,51,34Z"/><rect x="41" y="42" width="6" height="2"/><rect x="49" y="42" width="3" height="2"/><rect x="41" y="46" width="11" height="2"/><path d="M7,12V61a1,1,0,0,0,1,1H38a1,1,0,0,0,1-1V53H56a1,1,0,0,0,1-1V3a1,1,0,0,0-1-1H26c-.018,0-.034.009-.052.01a.964.964,0,0,0-.283.058c-.026.009-.052.014-.076.025s-.025.007-.036.012a1,1,0,0,0-.246.178c-.016.016-.027.035-.042.052a.948.948,0,0,0-.156.231.692.692,0,0,0-.039.088A.988.988,0,0,0,25,3v8H8A1,1,0,0,0,7,12ZM55,4V51H39V12a.98.98,0,0,0-.41-.786l.01-.014L29,4ZM27,5l8,6H27ZM9,13H37V60H9Z"/><path d="M33,16H13a1,1,0,0,0-1,1V36a1,1,0,0,0,1,1H33a1,1,0,0,0,1-1V17A1,1,0,0,0,33,16ZM32,35H14V32.535L19,29.2l5.445,3.63a1,1,0,0,0,1,.063L29,31.118l3,1.5Zm0-4.618-2.553-1.277a1,1,0,0,0-.894,0l-3.481,1.741-5.517-3.678a1,1,0,0,0-1.11,0L14,30.132V18H32Z"/><path d="M26,28a4,4,0,1,0-4-4A4,4,0,0,0,26,28Zm0-6a2,2,0,1,1-2,2A2,2,0,0,1,26,22Z"/><rect x="22" y="51" width="12" height="2"/><rect x="12" y="51" width="8" height="2"/><path d="M13,49H23a1,1,0,0,0,1-1V40a1,1,0,0,0-1-1H13a1,1,0,0,0-1,1v8A1,1,0,0,0,13,49Zm1-8h8v6H14Z"/><rect x="26" y="39" width="8" height="2"/><rect x="26" y="43" width="4" height="2"/><rect x="32" y="43" width="2" height="2"/><rect x="26" y="47" width="8" height="2"/><rect x="12" y="55" width="15" height="2"/><rect x="29" y="55" width="5" height="2"/></g><text x="0" y="79" fill="#000000" font-size="5px" font-weight="bold" font-family="'Helvetica Neue', Helvetica, Arial-Unicode, Arial, Sans-serif">Created by monkik</text><text x="0" y="84" fill="#000000" font-size="5px" font-weight="bold" font-family="'Helvetica Neue', Helvetica, Arial-Unicode, Arial, Sans-serif">from the Noun Project</text></svg>