<svg xmlns="http://www.w3.org/2000/svg" viewBox="0 0 64 80" x="0px" y="0px"><title>vacation-balloon-summer-think-brain</title><g><path d="M59,30H50V7a5.006,5.006,0,0,0-5-5H12A4,4,0,0,0,8,6V18H5a1,1,0,0,0-1,1v6a1,1,0,0,0,1,1H8V37a1,1,0,0,0,1,1h5V58a4,4,0,0,0,4,4H51a4,4,0,0,0,0-8H50V38h9a1,1,0,0,0,1-1V31A1,1,0,0,0,59,30ZM10,6a2,2,0,0,1,4,0V18H10ZM6,20H34a1,1,0,0,0,.992-.872L38.438,22l-3.446,2.872A1,1,0,0,0,34,24H6Zm4,16V26h4V36ZM53,58a2,2,0,0,1-2,2H21.463A3.97,3.97,0,0,0,22,58V56H51A2,2,0,0,1,53,58Zm-5-4H21a1,1,0,0,0-1,1v3a2,2,0,0,1-4,0V26H33v1a1,1,0,0,0,1.641.768l6-5a1,1,0,0,0,0-1.536l-6-5A1,1,0,0,0,33,17v1H16V6a3.958,3.958,0,0,0-.554-2H45a3,3,0,0,1,3,3V30H31V29a1,1,0,0,0-1.641-.768l-6,5a1,1,0,0,0,0,1.536l6,5A1,1,0,0,0,31,39V38H48ZM58,36H30a.977.977,0,0,0-.375.076,1.147,1.147,0,0,0-.106.064,1.007,1.007,0,0,0-.2.136,1,1,0,0,0-.089.114.962.962,0,0,0-.125.184.886.886,0,0,0-.046.146.87.87,0,0,0-.049.152L25.562,34l3.446-2.872a.87.87,0,0,0,.049.152.886.886,0,0,0,.046.146.962.962,0,0,0,.125.184,1,1,0,0,0,.089.114,1.007,1.007,0,0,0,.2.136,1.147,1.147,0,0,0,.106.064A.977.977,0,0,0,30,32H58Z"/><rect x="20" y="8" width="10" height="2"/><rect x="20" y="12" width="10" height="2"/><rect x="24" y="46" width="20" height="2"/><rect x="24" y="50" width="20" height="2"/><rect x="38" y="42" width="6" height="2"/></g><text x="0" y="79" fill="#000000" font-size="5px" font-weight="bold" font-family="'Helvetica Neue', Helvetica, Arial-Unicode, Arial, Sans-serif">Created by supalerk laipawat</text><text x="0" y="84" fill="#000000" font-size="5px" font-weight="bold" font-family="'Helvetica Neue', Helvetica, Arial-Unicode, Arial, Sans-serif">from the Noun Project</text></svg>