<?xml version="1.0" encoding="UTF-8"?>
<!DOCTYPE svg PUBLIC "-//W3C//DTD SVG 1.1//EN" "http://www.w3.org/Graphics/SVG/1.1/DTD/svg11.dtd">
<!-- Creator: CorelDRAW -->
<svg xmlns="http://www.w3.org/2000/svg" xml:space="preserve" width="1000px" height="1000px" version="1.1" style="shape-rendering:geometricPrecision; text-rendering:geometricPrecision; image-rendering:optimizeQuality; fill-rule:evenodd; clip-rule:evenodd"
viewBox="0 0 1000 1000"
 xmlns:xlink="http://www.w3.org/1999/xlink">
 <defs>
  <style type="text/css">
   <![CDATA[
    .fil0 {fill:black}
   ]]>
  </style>
 </defs>
 <g id="Layer_x0020_1">
  <metadata id="CorelCorpID_0Corel-Layer"/>
  <path class="fil0" d="M691.25 71.94c-51.7,0 -93.75,42.05 -93.75,93.75 0,51.7 42.05,93.75 93.75,93.75 51.7,0 93.75,-42.05 93.75,-93.75 0,-51.7 -42.05,-93.75 -93.75,-93.75zm0 31.25c34.47,0 62.5,28.03 62.5,62.5 0,34.47 -28.03,62.5 -62.5,62.5 -34.47,0 -62.5,-28.03 -62.5,-62.5 0,-34.47 28.03,-62.5 62.5,-62.5zm-57.19 156.31c-37.81,0 -73.29,18.44 -94.7,49.53l-135.92 195.95c-12.19,17.5 -12.2,40.16 -0.64,57.35l-89.94 107.78 -59.42 -48.88c-16.4,-13.44 -37.04,-19.53 -58.13,-17.19 -20.94,2.19 -39.83,12.65 -52.8,29.21l-91.89 116.58c-9.99,12.81 -15.62,28.88 -15.62,45.29 0,21.71 9.68,42.21 26.4,56.27l39.06 32.5c-1.87,5 -2.96,10.61 -2.96,16.24 0,25.93 21.09,46.87 46.87,46.87 25.79,0 46.88,-20.94 46.88,-46.87 0,-8.29 -2.2,-16.26 -6.1,-23.14l141.87 -175.14c0.02,-0.03 0.05,-0.07 0.06,-0.09l21.49 -25.76 6.44 -7.72 72.32 -86.61c6.25,2.5 13,3.61 19.87,3.3 15,-0.62 29.05,-7.81 38.27,-19.68l80.78 -104.07 0 123.75 -31.56 94.88 -20.75 47.27c-2.39,3.38 -4.91,6.66 -7.69,9.74l-93.9 102.17c-24.06,24.69 -23.76,64.86 0.61,89.23 23.59,23.6 61.72,24.99 87.19,2.96l103.12 -94.85c15.15,-13.75 26.88,-30.31 35,-49.22l24.08 -56.55 141.39 192.51c11.56,15.46 29.54,23.89 47.82,23.89 10.94,0 21.87,-2.97 31.55,-9.06 26.72,-16.88 35.64,-51.57 20.48,-79.07l-71.35 -130.74 -15.99 -29.33 -59.2 -108.52c-2.19,-4.22 -3.3,-8.92 -3.3,-13.76l0 -84.51 17.67 11.88c1.72,1.09 3.43,2.02 5.31,2.96l61.55 30.79c12.97,6.4 27.49,7.34 41.08,2.65 13.59,-4.84 24.4,-14.7 30.34,-27.83 11.56,-25.31 1.39,-55.29 -22.99,-68.42l-61.7 -32.99c-9.38,-5 -17.51,-11.71 -24.23,-19.99l-50.48 -63.11c-0.94,-1.09 -1.87,-2.05 -2.96,-2.99 -17.5,-43.12 -66.56,-65.46 -113.28,-65.46zm0 31.25c33.44,0 84.53,17.03 88.44,62.5l0 223.27c0,9.69 2.33,19.38 6.87,28.44l146.88 268.92c7.18,13.13 2.98,29.54 -9.68,37.51 -12.5,7.97 -29.06,4.82 -37.66,-6.9l-129.91 -176.82c-0.3,-0.55 -0.39,-1.16 -0.76,-1.68l-60.88 -84.87 -21.46 -30.73c-10.67,-15.97 -18.4,-66.01 -18.4,-91.92l0 -102.72c0,-6.72 -4.21,-12.64 -10.62,-14.83 -6.25,-2.19 -13.27,-0.16 -17.33,5.16l-108.77 139.98c-2.34,2.97 -5.47,5.16 -8.91,6.41 -1.88,0.78 -3.89,1.09 -5.92,1.25 -5.78,0.16 -11.41,-2.19 -15.32,-6.56 -3.12,-3.44 -4.85,-7.65 -5.01,-12.02 -0.31,-4.22 0.8,-8.61 3.45,-12.36l135.93 -195.93c15.62,-22.65 41.56,-36.1 69.06,-36.1zm119.69 91.4l22.64 28.44c9.38,11.57 20.63,21.11 33.76,28.14l61.73 32.96c10,5.31 14.06,17.49 9.37,27.8 -2.34,5.31 -6.73,9.39 -12.36,11.26 -5.47,1.88 -11.38,1.56 -16.54,-1.1l-61.73 -30.79c-0.63,-0.16 -1.09,-0.6 -1.71,-0.91l-35.16 -23.75 0 -72.05zm-166.96 240.08c1.15,1.91 2.01,3.93 3.26,5.8l51.33 72.05 -31.86 74.89c-6.25,14.69 -15.47,27.49 -27.34,38.27l-102.81 94.7c-12.82,11.09 -32.35,10.32 -44.22,-1.71 -12.5,-12.5 -12.66,-32.96 -0.16,-45.78l94.39 -102.51c12.82,-14.37 22.51,-30.94 28.6,-49.37l28.81 -86.34zm-379.24 12.7c2.9,0.26 5.79,0.79 8.6,1.55l-116.3 139.23c-5.53,6.62 -4.67,16.47 1.95,22 2.94,2.44 6.51,3.63 10.04,3.63 4.47,0 8.89,-1.91 12,-5.62l119.14 -142.6 50.02 41.07 -131.6 162.51c-5.31,-2.34 -11.09,-3.45 -17.03,-3.45 -8.59,0 -16.86,2.34 -23.89,6.56l-39.06 -32.5c-9.69,-7.97 -15.17,-19.7 -15.17,-32.19 0,-9.38 3.13,-18.6 8.91,-25.95l91.86 -116.54c7.81,-10 19.08,-16.27 31.74,-17.67 2.94,-0.3 5.88,-0.29 8.79,-0.03zm-63.18 249.57c8.6,0 15.63,7.03 15.63,15.63 0,8.59 -7.03,15.62 -15.63,15.62 -3.28,0 -6.25,-0.94 -8.75,-2.65 -0.79,-0.63 -1.73,-1.27 -2.51,-2.05 -2.65,-2.81 -4.36,-6.71 -4.36,-10.92 0,-8.6 7.03,-15.63 15.62,-15.63z"/>
 </g>
</svg>
219 25.669922 C 49.049219 26.409922 49.769375 27.020703 50.609375 27.470703 L 54.560547 29.580078 C 55.200547 29.920078 55.460156 30.699375 55.160156 31.359375 C 55.010156 31.699375 54.729141 31.960078 54.369141 32.080078 C 54.019141 32.200078 53.640547 32.179766 53.310547 32.009766 L 49.359375 30.039062 C 49.319375 30.029062 49.29 30.000469 49.25 29.980469 L 47 28.460938 L 47 23.849609 z M 36.314453 39.214844 C 36.388453 39.336844 36.443437 39.465937 36.523438 39.585938 L 39.808594 44.197266 L 37.769531 48.990234 C 37.369531 49.930234 36.779531 50.749453 36.019531 51.439453 L 29.439453 57.5 C 28.619453 58.21 27.369375 58.160625 26.609375 57.390625 C 25.809375 56.590625 25.799609 55.280938 26.599609 54.460938 L 32.640625 47.900391 C 33.460625 46.980391 34.080703 45.920234 34.470703 44.740234 L 36.314453 39.214844 z M 12.042969 40.027344 C 12.229094 40.044094 12.41375 40.077953 12.59375 40.126953 L 5.1503906 49.037109 C 4.7963906 49.461109 4.8513906 50.091312 5.2753906 50.445312 C 5.4633906 50.601312 5.6919688 50.677734 5.9179688 50.677734 C 6.2039687 50.677734 6.4865469 50.555359 6.6855469 50.318359 L 14.310547 41.191406 L 17.511719 43.820312 L 9.0898438 54.220703 C 8.7498438 54.070703 8.38 54 8 54 C 7.45 54 6.9207031 54.149922 6.4707031 54.419922 L 3.9707031 52.339844 C 3.3507031 51.829844 3 51.079297 3 50.279297 C 3 49.679297 3.2003125 49.089141 3.5703125 48.619141 L 9.4492188 41.160156 C 9.9492188 40.520156 10.670469 40.119297 11.480469 40.029297 C 11.668969 40.010297 11.856844 40.010594 12.042969 40.027344 z M 27 41.996094 C 26.447 41.996094 26 42.444094 26 42.996094 L 26 44.996094 C 26 45.548094 26.447 45.996094 27 45.996094 C 27.553 45.996094 28 45.548094 28 44.996094 L 28 42.996094 C 28 42.444094 27.553 41.996094 27 41.996094 z M 57 41.996094 C 56.447 41.996094 56 42.444094 56 42.996094 L 56 44.996094 C 56 45.548094 56.447 45.996094 57 45.996094 C 57.553 45.996094 58 45.548094 58 44.996094 L 58 42.996094 C 58 42.444094 57.553 41.996094 57 41.996094 z M 62 41.996094 C 61.447 41.996094 61 42.444094 61 42.996094 L 61 44.996094 C 61 45.548094 61.447 45.996094 62 45.996094 C 62.553 45.996094 63 45.548094 63 44.996094 L 63 42.996094 C 63 42.444094 62.553 41.996094 62 41.996094 z M 8 56 C 8.55 56 9 56.45 9 57 C 9 57.55 8.55 58 8 58 C 7.79 58 7.5994531 57.940078 7.4394531 57.830078 C 7.3894531 57.790078 7.3292969 57.749219 7.2792969 57.699219 C 7.1092969 57.519219 7 57.27 7 57 C 7 56.45 7.45 56 8 56 z"/>
</svg>
